<svg width="22.000000" height="22.000000" viewBox="0 0 22 22" fill="none" xmlns="http://www.w3.org/2000/svg" xmlns:xlink="http://www.w3.org/1999/xlink">
	<desc>
			Created with Pixso.
	</desc>
	<defs>
		<clipPath id="clip5_17">
			<rect rx="0.000000" width="21.000000" height="21.000000" transform="translate(0.500000 0.500000)" fill="white" fill-opacity="0"/>
		</clipPath>
	</defs>
	<rect rx="0.000000" width="21.000000" height="21.000000" transform="translate(0.500000 0.500000)" fill="#FFFFFF" fill-opacity="0"/>
	<g clip-path="url(#clip5_17)">
		<path d="M12.94 9.74C14.01 10.81 14.01 12.55 12.94 13.63C11.87 14.7 10.12 14.7 9.05 13.63C7.98 12.55 7.98 10.81 9.05 9.74C10.12 8.66 11.87 8.66 12.94 9.74Z" fill="#989898" fill-opacity="1.000000" fill-rule="nonzero"/>
		<path d="M19.25 4.12L17.34 4.12L15.97 1.37L6.02 1.37L4.65 4.12L2.75 4.12C1.24 4.13 0 5.36 0 6.87L0 17.87C0 19.39 1.23 20.62 2.75 20.62L19.25 20.62C20.76 20.62 22 19.39 22 17.87L22 6.87C22 5.35 20.76 4.12 19.25 4.12ZM10.99 17.18C7.96 17.18 5.49 14.72 5.49 11.68C5.49 8.65 7.96 6.18 10.99 6.18C14.03 6.18 16.49 8.65 16.49 11.68C16.49 14.72 14.03 17.18 10.99 17.18Z" fill="#989898" fill-opacity="1.000000" fill-rule="nonzero"/>
	</g>
</svg>
